<svg xmlns="http://www.w3.org/2000/svg" width="20.571" height="20.376" viewBox="0 0 20.571 20.376">
  <path id="dash7" d="M68.57,59.854a.523.523,0,0,0-.463-.492l-1.268-.205a.268.268,0,0,1-.223-.231c-.024-.156-.049-.317-.084-.471a.273.273,0,0,1,.13-.289l1.126-.626a.512.512,0,0,0,.247-.634l-.2-.539a.51.51,0,0,0-.6-.322l-1.263.247a.272.272,0,0,1-.288-.139c-.074-.138-.154-.278-.237-.416a.277.277,0,0,1,.022-.321l.841-.971a.515.515,0,0,0,.019-.68l-.367-.441a.506.506,0,0,0-.672-.1l-1.106.664a.267.267,0,0,1-.316-.031c-.122-.107-.247-.211-.364-.306a.269.269,0,0,1-.085-.307l.458-1.207a.512.512,0,0,0-.213-.646l-.5-.291a.509.509,0,0,0-.665.14L61.7,52.256a.227.227,0,0,1-.277.085c-.03-.012-.285-.117-.484-.183a.268.268,0,0,1-.185-.259l.019-1.289a.518.518,0,0,0-.424-.538l-.566-.1a.517.517,0,0,0-.581.355l-.42,1.227a.27.27,0,0,1-.265.18h-.482a.272.272,0,0,1-.262-.181l-.418-1.22a.517.517,0,0,0-.582-.358l-.567.1a.517.517,0,0,0-.423.534L55.8,51.9a.269.269,0,0,1-.191.26c-.113.044-.359.138-.471.18a.268.268,0,0,1-.294-.1l-.8-.989a.509.509,0,0,0-.666-.143l-.5.288a.512.512,0,0,0-.214.651l.457,1.2a.274.274,0,0,1-.084.308c-.12.1-.243.2-.366.308a.266.266,0,0,1-.314.032l-1.093-.677a.514.514,0,0,0-.673.1l-.365.44a.51.51,0,0,0,.018.68l.845.97a.268.268,0,0,1,.022.319c-.085.134-.165.276-.238.417a.273.273,0,0,1-.29.139l-1.261-.244a.511.511,0,0,0-.6.322l-.2.538a.513.513,0,0,0,.247.635l1.126.626a.267.267,0,0,1,.131.293l-.012.063c-.026.138-.049.269-.072.407a.271.271,0,0,1-.221.229l-1.27.205a.515.515,0,0,0-.452.508v.573a.507.507,0,0,0,.453.507l1.27.2a.268.268,0,0,1,.223.231c.024.156.049.317.084.471a.273.273,0,0,1-.13.289l-1.126.627a.512.512,0,0,0-.247.634l.2.539a.511.511,0,0,0,.6.322l1.263-.245a.271.271,0,0,1,.288.139c.074.138.154.278.237.416a.276.276,0,0,1-.022.321l-.841.971a.515.515,0,0,0-.025.681l.366.441a.506.506,0,0,0,.672.1l1.106-.664a.267.267,0,0,1,.316.031c.123.107.247.211.364.306a.27.27,0,0,1,.086.307l-.458,1.207a.512.512,0,0,0,.213.646l.5.289a.509.509,0,0,0,.665-.139l.818-1.006a.238.238,0,0,1,.259-.091c.172.071.287.111.492.179a.269.269,0,0,1,.185.259l-.02,1.288a.519.519,0,0,0,.424.538l.566.1a.516.516,0,0,0,.581-.355l.42-1.225a.269.269,0,0,1,.265-.18h.482a.271.271,0,0,1,.262.181l.419,1.22a.518.518,0,0,0,.494.366.482.482,0,0,0,.088-.008l.567-.1a.517.517,0,0,0,.423-.534l-.02-1.294a.268.268,0,0,1,.185-.257c.19-.064.323-.115.441-.161l.03-.011a.216.216,0,0,1,.27.065l.828,1.02a.509.509,0,0,0,.665.139l.5-.288a.512.512,0,0,0,.213-.648l-.457-1.2a.273.273,0,0,1,.084-.308c.12-.1.243-.2.366-.308a.267.267,0,0,1,.315-.031l1.107.663a.514.514,0,0,0,.673-.1l.366-.44a.51.51,0,0,0-.018-.68l-.844-.973a.268.268,0,0,1-.022-.319c.085-.134.165-.275.238-.417a.274.274,0,0,1,.29-.139l1.26.246a.511.511,0,0,0,.6-.322l.2-.538a.513.513,0,0,0-.247-.635l-1.127-.627a.267.267,0,0,1-.129-.291l.012-.063c.026-.138.049-.269.072-.407a.271.271,0,0,1,.221-.229l1.27-.2a.516.516,0,0,0,.454-.508v-.579ZM54.6,64.5a.781.781,0,0,1-1.259.132,6.678,6.678,0,0,1,.021-8.982.782.782,0,0,1,1.261.137l2.257,3.973a.784.784,0,0,1,0,.778Zm3.681,2.333a6.663,6.663,0,0,1-1.4-.148.782.782,0,0,1-.506-1.155l2.275-3.956a.781.781,0,0,1,.677-.392h4.556a.781.781,0,0,1,.747,1.015,6.682,6.682,0,0,1-6.349,4.636Zm.371-8.1-2.25-3.963a.782.782,0,0,1,.51-1.152,6.662,6.662,0,0,1,7.717,4.5.781.781,0,0,1-.747,1.015H59.337A.78.78,0,0,1,58.656,58.731Z" transform="translate(-48 -49.966)" fill="#ccc"/>
</svg>
