<svg xmlns="http://www.w3.org/2000/svg" width="20" height="20" viewBox="0 0 20 20">
  <path id="dash4" d="M49.143,33.43h-.714v-.694a.728.728,0,0,0-.68-.733.714.714,0,0,0-.749.713v.714H37v-.694A.728.728,0,0,0,36.32,32a.714.714,0,0,0-.749.713v.714h-.714A2.857,2.857,0,0,0,32,36.287v.536a.179.179,0,0,0,.179.179H51.821A.179.179,0,0,0,52,36.823v-.536A2.857,2.857,0,0,0,49.143,33.43Zm2.723,5H32.134a.134.134,0,0,0-.134.134v10.58A2.857,2.857,0,0,0,34.857,52H49.143A2.857,2.857,0,0,0,52,49.144V38.564A.134.134,0,0,0,51.866,38.43ZM40.571,44.3A1.275,1.275,0,0,1,39.3,45.573H36.133A1.275,1.275,0,0,1,34.857,44.3V41.134a1.275,1.275,0,0,1,1.275-1.275H39.3a1.275,1.275,0,0,1,1.275,1.275Z" transform="translate(-32 -32.001)" fill="#ccc"/>
</svg>
