<svg xmlns="http://www.w3.org/2000/svg" width="25.642" height="20.147" viewBox="0 0 25.642 20.147">
  <path id="dash8" d="M49.4,96.942V90.989H41.1a.916.916,0,1,1,0-1.832h8.3V83.205A3.209,3.209,0,0,0,46.195,80H35.205A3.209,3.209,0,0,0,32,83.205V96.942a3.209,3.209,0,0,0,3.205,3.205H46.195A3.209,3.209,0,0,0,49.4,96.942Zm5.115-5.953L51.5,94.005A.916.916,0,0,0,52.795,95.3l4.579-4.579a.916.916,0,0,0,0-1.295l-4.579-4.579A.916.916,0,0,0,51.5,86.142l3.015,3.016H49.4v1.832Z" transform="translate(-32 -80)" fill="#ccc"/>
</svg>
