<svg xmlns="http://www.w3.org/2000/svg" width="26.695" height="19.577" viewBox="0 0 26.695 19.577">
  <path id="dash2" d="M33.8,89.788a4.271,4.271,0,0,1-3.114-1.437,5.556,5.556,0,0,1-1.446-3.393,4.644,4.644,0,0,1,1.176-3.546,4.743,4.743,0,0,1,6.761.007,4.634,4.634,0,0,1,1.182,3.539,5.572,5.572,0,0,1-1.446,3.393A4.26,4.26,0,0,1,33.8,89.788ZM37.468,84.894Zm3.661,14.682H26.467a1.541,1.541,0,0,1-1.224-.593,1.681,1.681,0,0,1-.293-1.434,7.33,7.33,0,0,1,3.355-4.509,11.055,11.055,0,0,1,10.982-.023,7.289,7.289,0,0,1,3.358,4.535,1.683,1.683,0,0,1-.3,1.434A1.539,1.539,0,0,1,41.129,99.576ZM23.286,90.011a4.181,4.181,0,0,1-3.837-4.056,3.921,3.921,0,0,1,1-2.982,3.956,3.956,0,0,1,5.669.007,3.891,3.891,0,0,1,1,2.977A4.18,4.18,0,0,1,23.286,90.011Zm3.652,1.749a8.441,8.441,0,0,0-3.651-.717,8.6,8.6,0,0,0-4.481,1.2,6.034,6.034,0,0,0-2.759,3.71,1.523,1.523,0,0,0,.266,1.3,1.408,1.408,0,0,0,1.117.543H23.6a.445.445,0,0,0,.438-.365c.006-.035.014-.07.023-.1a8.056,8.056,0,0,1,3.21-4.662.445.445,0,0,0-.035-.745c-.087-.051-.187-.105-.3-.161Z" transform="translate(-16.001 -80)" fill="#ccc"/>
</svg>
