<svg xmlns="http://www.w3.org/2000/svg" width="19.987" height="19.987" viewBox="0 0 19.987 19.987">
  <g id="dash6" transform="translate(-48 -48)">
    <path id="Path_8" data-name="Path 8" d="M220.1,48.252a.772.772,0,0,0-1.116-.027l-.594.591a.384.384,0,0,0,0,.543l.545.544a.384.384,0,0,0,.545,0l.579-.577A.781.781,0,0,0,220.1,48.252Zm-2.912,1.766-8.673,8.658a.432.432,0,0,0-.111.189l-.4,1.195a.188.188,0,0,0,.234.233l1.194-.4a.432.432,0,0,0,.189-.111l8.658-8.674a.432.432,0,0,0,0-.608l-.478-.48A.432.432,0,0,0,217.192,50.018Z" transform="translate(-152.311 0)" fill="#ccc"/>
    <path id="Path_9" data-name="Path 9" d="M64.256,115.923,58.4,121.791a1.973,1.973,0,0,1-.811.491l-1.244.417a1.726,1.726,0,0,1-2.13-2.13l.417-1.244a1.974,1.974,0,0,1,.49-.811l5.868-5.857a.384.384,0,0,0-.271-.656H50.691A2.691,2.691,0,0,0,48,114.691v11.531a2.691,2.691,0,0,0,2.691,2.691H62.222a2.691,2.691,0,0,0,2.691-2.691V116.195a.384.384,0,0,0-.656-.271Z" transform="translate(0 -60.925)" fill="#ccc"/>
  </g>
</svg>
