<svg xmlns="http://www.w3.org/2000/svg" width="20" height="20" viewBox="0 0 20 20">
  <path id="grid" d="M39.679,41.286H33.607A1.607,1.607,0,0,1,32,39.679V33.607A1.607,1.607,0,0,1,33.607,32h6.071a1.607,1.607,0,0,1,1.607,1.607v6.071A1.607,1.607,0,0,1,39.679,41.286Zm10.714,0H44.321a1.607,1.607,0,0,1-1.607-1.607V33.607A1.607,1.607,0,0,1,44.321,32h6.071A1.607,1.607,0,0,1,52,33.607v6.071A1.607,1.607,0,0,1,50.393,41.286ZM39.679,52H33.607A1.607,1.607,0,0,1,32,50.393V44.321a1.607,1.607,0,0,1,1.607-1.607h6.071a1.607,1.607,0,0,1,1.607,1.607v6.071A1.607,1.607,0,0,1,39.679,52Zm10.714,0H44.321a1.607,1.607,0,0,1-1.607-1.607V44.321a1.607,1.607,0,0,1,1.607-1.607h6.071A1.607,1.607,0,0,1,52,44.321v6.071A1.607,1.607,0,0,1,50.393,52Z" transform="translate(-32 -32)" fill="#ccc"/>
</svg>
