<svg xmlns="http://www.w3.org/2000/svg" width="22.035" height="20.566" viewBox="0 0 22.035 20.566">
  <path id="dash3" d="M35.1,34.938h-2.2V34.2a2.206,2.206,0,0,0-2.2-2.2H23.345a2.206,2.206,0,0,0-2.2,2.2v.735h-2.2A2.941,2.941,0,0,0,16,37.876V49.628a2.938,2.938,0,0,0,2.938,2.938H35.1a2.938,2.938,0,0,0,2.938-2.938V37.876A2.941,2.941,0,0,0,35.1,34.938ZM30.69,44.487H27.752v2.938a.735.735,0,1,1-1.469,0V44.487H23.345a.735.735,0,1,1,0-1.469h2.938V40.08a.735.735,0,1,1,1.469,0v2.938H30.69a.735.735,0,0,1,0,1.469Zm.735-9.549H22.611V34.2a.735.735,0,0,1,.735-.735H30.69a.735.735,0,0,1,.735.735Z" transform="translate(-16 -32)" fill="#ccc"/>
</svg>
