<svg id="delete" xmlns="http://www.w3.org/2000/svg" width="20" height="20" viewBox="0 0 20 20">
  <rect id="Rectangle_3554" data-name="Rectangle 3554" width="20" height="20" rx="3" fill="none"/>
  <g id="Iconly_Bold_Delete" data-name="Iconly/Bold/Delete" transform="translate(2 1.667)">
    <g id="Delete-2" data-name="Delete" transform="translate(2 1.333)">
      <path id="Delete-3" data-name="Delete" d="M3.421,13.307a1.944,1.944,0,0,1-1.954-1.885C1.258,9.525.91,5.038.9,4.993a.528.528,0,0,1,.127-.372.472.472,0,0,1,.349-.156h9.247a.483.483,0,0,1,.349.156.5.5,0,0,1,.121.372c0,.046-.355,4.539-.558,6.43a1.945,1.945,0,0,1-2,1.885c-.863.019-1.707.026-2.537.026C5.121,13.333,4.258,13.327,3.421,13.307ZM.476,3.394A.487.487,0,0,1,0,2.9V2.651a.482.482,0,0,1,.476-.49H2.42a.855.855,0,0,0,.827-.676l.1-.455A1.326,1.326,0,0,1,4.624,0H7.376A1.325,1.325,0,0,1,8.645,1l.109.487a.853.853,0,0,0,.827.677h1.944a.482.482,0,0,1,.475.49V2.9a.486.486,0,0,1-.475.49Z" fill="#ff595e"/>
    </g>
  </g>
</svg>
