<svg id="dash5" xmlns="http://www.w3.org/2000/svg" width="20.149" height="20" viewBox="0 0 20.149 20">
  <path id="Path_3" data-name="Path 3" fill="none" stroke="#ccc" stroke-linecap="round" stroke-linejoin="round" stroke-miterlimit="10" stroke-width="32"/>
  <path id="Path_4" data-name="Path 4" fill="none" stroke="#ccc" stroke-linecap="round" stroke-linejoin="round" stroke-miterlimit="10" stroke-width="32"/>
  <path id="Path_5" data-name="Path 5" d="M9.324,143.7.273,139.885a.2.2,0,0,0-.273.181v10.188a.63.63,0,0,0,.4.585l8.779,3.512a.2.2,0,0,0,.27-.183V143.878A.2.2,0,0,0,9.324,143.7Z" transform="translate(0 -134.365)" fill="#ccc"/>
  <path id="Path_6" data-name="Path 6" d="M37.707,11.874,46.456,8.19a.2.2,0,0,0,.007-.36l-8.566-4a.63.63,0,0,0-.533,0l-8.566,4a.2.2,0,0,0,.007.36l8.749,3.684A.2.2,0,0,0,37.707,11.874Z" transform="translate(-27.556 -3.626)" fill="#ccc"/>
  <path id="Path_7" data-name="Path 7" d="M272,143.878v10.291a.2.2,0,0,0,.27.183l8.779-3.512a.63.63,0,0,0,.4-.585V140.067a.2.2,0,0,0-.273-.181L272.12,143.7A.2.2,0,0,0,272,143.878Z" transform="translate(-261.296 -134.365)" fill="#ccc"/>
</svg>
