<svg id="edit" xmlns="http://www.w3.org/2000/svg" width="20" height="20" viewBox="0 0 20 20">
  <rect id="Rectangle_3555" data-name="Rectangle 3555" width="20" height="20" rx="3" fill="none"/>
  <g id="Iconly_Bold_Edit" data-name="Iconly/Bold/Edit" transform="translate(2 2)">
    <g id="Edit-2" data-name="Edit" transform="translate(2 2)">
      <path id="Edit-3" data-name="Edit" d="M7.52,12a.682.682,0,0,1,0-1.364h3.807a.682.682,0,0,1,0,1.364ZM.565,11.718l-.53-2.3A1.421,1.421,0,0,1,.3,8.22L4.456,2.845a.209.209,0,0,1,.283-.036L6.487,4.2a.564.564,0,0,0,.431.122.63.63,0,0,0,.545-.7.7.7,0,0,0-.22-.423l-1.7-1.361a.252.252,0,0,1-.043-.35L6.161.638A1.723,1.723,0,0,1,8.687.466l.983.781a2.041,2.041,0,0,1,.764,1.168,1.6,1.6,0,0,1-.325,1.361L4.251,11.352a1.4,1.4,0,0,1-1.09.545l-2.335.028A.266.266,0,0,1,.565,11.718Z" transform="translate(0)" fill="#0071f2"/>
    </g>
  </g>
</svg>
